<svg width="24" height="24" viewBox="0 0 24 24" fill="none" xmlns="http://www.w3.org/2000/svg">
<path fill-rule="evenodd" clip-rule="evenodd" d="M3.42857 3.69231C2.4818 3.69231 1.71429 4.44998 1.71429 5.38462V20.6154C1.71429 21.55 2.4818 22.3077 3.42857 22.3077H20.5714C21.5182 22.3077 22.2857 21.55 22.2857 20.6154V5.38462C22.2857 4.44998 21.5182 3.69231 20.5714 3.69231H3.42857ZM0 5.38462C0 3.51534 1.53502 2 3.42857 2H20.5714C22.465 2 24 3.51534 24 5.38462V20.6154C24 22.4847 22.465 24 20.5714 24H3.42857C1.53502 24 0 22.4847 0 20.6154V5.38462Z" fill="#589AFF"/>
<path d="M5.5 12C6.32843 12 7 11.3284 7 10.5C7 9.67157 6.32843 9 5.5 9C4.67157 9 4 9.67157 4 10.5C4 11.3284 4.67157 12 5.5 12Z" fill="#589AFF"/>
<path d="M10.5 12C11.3284 12 12 11.3284 12 10.5C12 9.67157 11.3284 9 10.5 9C9.67157 9 9 9.67157 9 10.5C9 11.3284 9.67157 12 10.5 12Z" fill="#589AFF"/>
<path d="M15.5 16C16.3284 16 17 15.3284 17 14.5C17 13.6716 16.3284 13 15.5 13C14.6716 13 14 13.6716 14 14.5C14 15.3284 14.6716 16 15.5 16Z" fill="#589AFF"/>
<path d="M5.5 16C6.32843 16 7 15.3284 7 14.5C7 13.6716 6.32843 13 5.5 13C4.67157 13 4 13.6716 4 14.5C4 15.3284 4.67157 16 5.5 16Z" fill="#589AFF"/>
<path d="M10.5 16C11.3284 16 12 15.3284 12 14.5C12 13.6716 11.3284 13 10.5 13C9.67157 13 9 13.6716 9 14.5C9 15.3284 9.67157 16 10.5 16Z" fill="#589AFF"/>
<path d="M5.5 21C6.32843 21 7 20.3284 7 19.5C7 18.6716 6.32843 18 5.5 18C4.67157 18 4 18.6716 4 19.5C4 20.3284 4.67157 21 5.5 21Z" fill="#589AFF"/>
<path d="M10.5 21C11.3284 21 12 20.3284 12 19.5C12 18.6716 11.3284 18 10.5 18C9.67157 18 9 18.6716 9 19.5C9 20.3284 9.67157 21 10.5 21Z" fill="#589AFF"/>
<path d="M15.5 21C16.3284 21 17 20.3284 17 19.5C17 18.6716 16.3284 18 15.5 18C14.6716 18 14 18.6716 14 19.5C14 20.3284 14.6716 21 15.5 21Z" fill="#589AFF"/>
<path fill-rule="evenodd" clip-rule="evenodd" d="M4.88889 0C5.37981 0 5.77778 0.335786 5.77778 0.75V2.25C5.77778 2.66421 5.37981 3 4.88889 3C4.39797 3 4 2.66421 4 2.25V0.75C4 0.335786 4.39797 0 4.88889 0ZM19.1111 0C19.602 0 20 0.335786 20 0.75V2.25C20 2.66421 19.602 3 19.1111 3C18.6202 3 18.2222 2.66421 18.2222 2.25V0.75C18.2222 0.335786 18.6202 0 19.1111 0Z" fill="#589AFF"/>
<path fill-rule="evenodd" clip-rule="evenodd" d="M1 6H23V8H1V6Z" fill="#589AFF"/>
</svg>
