<svg width="50" height="50" viewBox="0 0 50 50" fill="none" xmlns="http://www.w3.org/2000/svg">
<circle cx="25" cy="25" r="25" fill="#F5F9FF"/>
<path d="M33.8953 18.3141C34.5054 17.704 34.5054 16.7148 33.8953 16.1047V16.1047C33.2852 15.4946 32.296 15.4946 31.6859 16.1047L25.5 22.2906L19.3141 16.1047C18.704 15.4946 17.7148 15.4946 17.1047 16.1047V16.1047C16.4946 16.7148 16.4946 17.704 17.1047 18.3141L23.2906 24.5L17.1047 30.6859C16.4946 31.296 16.4946 32.2852 17.1047 32.8953V32.8953C17.7148 33.5054 18.704 33.5054 19.3141 32.8953L25.5 26.7094L31.6859 32.8953C32.296 33.5054 33.2852 33.5054 33.8953 32.8953V32.8953C34.5054 32.2852 34.5054 31.296 33.8953 30.6859L27.7094 24.5L33.8953 18.3141Z" fill="#589AFF"/>
</svg>
