<svg width="18" height="20" viewBox="0 0 18 20" fill="none" xmlns="http://www.w3.org/2000/svg">
<path d="M9 10C9.95848 10 10.8954 9.70676 11.6924 9.15735C12.4893 8.60794 13.1105 7.82705 13.4773 6.91342C13.8441 5.99979 13.94 4.99445 13.753 4.02455C13.566 3.05465 13.1045 2.16373 12.4267 1.46447C11.749 0.765206 10.8855 0.289002 9.94544 0.0960758C9.00538 -0.0968502 8.03098 0.00216642 7.14546 0.380605C6.25994 0.759043 5.50307 1.3999 4.97057 2.22215C4.43807 3.0444 4.15385 4.0111 4.15385 5C4.15385 6.32608 4.66442 7.59785 5.57325 8.53553C6.48208 9.47322 7.71472 10 9 10ZM9 11.4286C5.99625 11.4286 0 13.3429 0 17.1429V20H18V17.1429C18 13.3429 12.0037 11.4286 9 11.4286Z" fill="#575757"/>
</svg>
