<svg width="30" height="27" viewBox="0 0 30 27" fill="none" xmlns="http://www.w3.org/2000/svg">
<path d="M1.07143 4.48261H26.8192V1.0474C26.8192 0.892424 26.784 0.739381 26.7162 0.599304C26.6484 0.459227 26.5496 0.335608 26.427 0.237362C26.3044 0.139115 26.161 0.0686903 26.0072 0.031166C25.8534 -0.0063584 25.693 -0.0100468 25.5375 0.0203664L0.894643 3.97924C0.711145 4.01495 0.540411 4.097 0.39943 4.21724C0.258449 4.33748 0.152137 4.4917 0.0910715 4.66458C0.403173 4.54396 0.73582 4.48222 1.07143 4.48261ZM28.9286 6.05359H1.07143C0.787268 6.05359 0.514746 6.16393 0.313814 6.36034C0.112882 6.55675 0 6.82314 0 7.10091V25.9527C0 26.2304 0.112882 26.4968 0.313814 26.6932C0.514746 26.8897 0.787268 27 1.07143 27H28.9286C29.2127 27 29.4853 26.8897 29.6862 26.6932C29.8871 26.4968 30 26.2304 30 25.9527V7.10091C30 6.82314 29.8871 6.55675 29.6862 6.36034C29.4853 6.16393 29.2127 6.05359 28.9286 6.05359ZM22.5335 18.6214C22.1097 18.6214 21.6954 18.4986 21.343 18.2684C20.9906 18.0383 20.7159 17.7111 20.5537 17.3284C20.3916 16.9456 20.3491 16.5245 20.4318 16.1181C20.5145 15.7118 20.7186 15.3386 21.0183 15.0457C21.3179 14.7527 21.6998 14.5532 22.1154 14.4724C22.5311 14.3916 22.962 14.4331 23.3535 14.5916C23.7451 14.7501 24.0797 15.0186 24.3152 15.3631C24.5507 15.7075 24.6763 16.1125 24.6763 16.5268C24.6763 17.0823 24.4506 17.6151 24.0487 18.0079C23.6468 18.4007 23.1018 18.6214 22.5335 18.6214Z" fill="url(#paint0_linear_187_646)"/>
<path d="M0 15V4.98837C0 4.12814 0.402188 3.69907 1.08422 3.59302C3.55922 3.20721 8.71875 3 8.71875 3C8.71875 3 8.13305 4.11628 6.79711 4.11628V5.82558C8.09789 5.82558 9 7.46512 9 7.46512L3.76172 13.3605L0 15Z" fill="url(#paint1_linear_187_646)"/>
<defs>
<linearGradient id="paint0_linear_187_646" x1="15" y1="0" x2="15" y2="27" gradientUnits="userSpaceOnUse">
<stop stop-color="#88B7FF"/>
<stop offset="1" stop-color="#63A1FF"/>
</linearGradient>
<linearGradient id="paint1_linear_187_646" x1="4.5" y1="3" x2="4.5" y2="15" gradientUnits="userSpaceOnUse">
<stop stop-color="#88B7FF"/>
<stop offset="1" stop-color="#63A1FF"/>
</linearGradient>
</defs>
</svg>
