<svg width="20" height="18" viewBox="0 0 20 18" fill="none" xmlns="http://www.w3.org/2000/svg">
<path d="M0.714286 2.9884H17.8795V0.698263C17.8795 0.594949 17.856 0.49292 17.8108 0.399536C17.7656 0.306152 17.6997 0.223739 17.618 0.158241C17.5363 0.0927436 17.4407 0.0457936 17.3381 0.0207773C17.2356 -0.00423893 17.1286 -0.00669785 17.025 0.0135776L0.596429 2.65283C0.474096 2.67663 0.360274 2.73133 0.266287 2.81149C0.172299 2.89165 0.101425 2.99447 0.0607143 3.10972C0.268782 3.02931 0.490547 2.98814 0.714286 2.9884ZM19.2857 4.03573H0.714286C0.524845 4.03573 0.343164 4.10929 0.209209 4.24023C0.0752549 4.37117 0 4.54876 0 4.73394V17.3018C0 17.487 0.0752549 17.6646 0.209209 17.7955C0.343164 17.9264 0.524845 18 0.714286 18H19.2857C19.4752 18 19.6568 17.9264 19.7908 17.7955C19.9247 17.6646 20 17.487 20 17.3018V4.73394C20 4.54876 19.9247 4.37117 19.7908 4.24023C19.6568 4.10929 19.4752 4.03573 19.2857 4.03573ZM15.0223 12.4143C14.7398 12.4143 14.4636 12.3324 14.2286 12.1789C13.9937 12.0255 13.8106 11.8074 13.7025 11.5523C13.5944 11.2971 13.5661 11.0163 13.6212 10.7454C13.6763 10.4746 13.8124 10.2257 14.0122 10.0304C14.212 9.83515 14.4665 9.70215 14.7436 9.64827C15.0207 9.59439 15.308 9.62204 15.569 9.72773C15.8301 9.83342 16.0532 10.0124 16.2101 10.242C16.3671 10.4717 16.4509 10.7417 16.4509 11.0179C16.4509 11.3882 16.3004 11.7434 16.0325 12.0053C15.7646 12.2672 15.4012 12.4143 15.0223 12.4143Z" fill="#575757"/>
<path d="M0 10V3.32558C0 2.75209 0.268125 2.46605 0.722813 2.39535C2.37281 2.13814 5.8125 2 5.8125 2C5.8125 2 5.42203 2.74419 4.53141 2.74419V3.88372C5.39859 3.88372 6 4.97674 6 4.97674L2.50781 8.90698L0 10Z" fill="#575757"/>
</svg>
