<svg width="200" height="200" viewBox="0 0 200 200" fill="none" xmlns="http://www.w3.org/2000/svg">
<g filter="url(#filter0_bi_172_1426)">
<path d="M200 100C200 155.228 155.228 200 100 200C44.7715 200 0 155.228 0 100C0 44.7715 44.7715 0 100 0C155.228 0 200 44.7715 200 100Z" fill="white" fill-opacity="0.26"/>
</g>
<path d="M160 100C160 132.585 133.585 159 101 159C68.4152 159 42 132.585 42 100C42 67.4152 68.4152 41 101 41C133.585 41 160 67.4152 160 100Z" fill="#83C766"/>
<path d="M167.434 133.014L173.332 137.043L171.934 139.084C171.489 139.734 170.98 140.132 170.407 140.279C169.838 140.429 169.221 140.276 168.553 139.82C168.214 139.588 167.958 139.324 167.786 139.027C167.61 138.736 167.511 138.427 167.489 138.102C167.466 137.826 167.504 137.526 167.603 137.202C167.702 136.878 167.862 136.555 168.083 136.233L168.881 135.067L166.938 133.739L167.434 133.014ZM169.541 135.517L168.765 136.65C168.62 136.861 168.504 137.084 168.418 137.318C168.336 137.556 168.31 137.779 168.34 137.986C168.363 138.19 168.431 138.383 168.543 138.565C168.655 138.748 168.839 138.926 169.094 139.101C169.94 139.679 170.674 139.512 171.298 138.601L172.177 137.318L169.541 135.517Z" fill="white"/>
<path d="M161.178 143.387L166.341 148.321L163.022 151.785L162.445 151.234L165.156 148.404L163.418 146.743L160.98 149.289L160.396 148.731L162.834 146.185L161.147 144.573L158.436 147.403L157.859 146.852L161.178 143.387Z" fill="white"/>
<path d="M156.086 161.266C155.841 161.444 155.684 161.641 155.616 161.856C155.552 162.077 155.59 162.295 155.73 162.51L155.051 163.003C154.777 162.603 154.691 162.199 154.794 161.791C154.896 161.393 155.184 161.022 155.658 160.678C156.132 160.334 156.578 160.173 156.994 160.195C157.408 160.227 157.764 160.435 158.06 160.819L157.381 161.311C157.22 161.112 157.024 161.009 156.793 161.002C156.567 161 156.331 161.088 156.086 161.266ZM153.382 152.759L157.583 158.532L156.871 159.048L153.479 154.386L153.773 161.298L153.021 161.843L148.82 156.07L149.531 155.554L152.894 160.176L152.638 153.299L153.382 152.759Z" fill="white"/>
<path d="M140.941 162.084L141.723 161.683L144.623 167.322L146.663 166.275L147.028 166.985L142.164 169.48L141.8 168.77L143.84 167.723L140.941 162.084Z" fill="white"/>
<path d="M133.161 167.028L135.247 173.854L134.406 174.11L132.721 168.597L130.742 175.227L129.853 175.498L127.767 168.672L128.608 168.416L130.278 173.88L132.282 167.296L133.161 167.028Z" fill="white"/>
<path d="M120.352 175.664L116.549 176.126L116.94 179.333L116.067 179.439L115.204 172.354L116.077 172.248L116.452 175.324L120.254 174.862L119.879 171.786L120.752 171.68L121.615 178.765L120.742 178.871L120.352 175.664Z" fill="white"/>
<path d="M107.778 173.867L107.533 181L102.937 180.842L102.965 180.045L106.682 180.173L106.9 173.837L107.778 173.867Z" fill="white"/>
<path d="M87.7414 173.126L88.6747 173.425L86.3529 175.66C86.5481 175.779 86.7222 175.919 86.8752 176.082C87.0219 176.242 87.1368 176.424 87.2199 176.627C87.3031 176.83 87.3481 177.053 87.355 177.296C87.3598 177.545 87.3169 177.81 87.2262 178.092C87.1025 178.477 86.9396 178.785 86.7376 179.017C86.5355 179.249 86.3008 179.417 86.0335 179.523C85.7597 179.626 85.4597 179.667 85.1335 179.647C84.7988 179.632 84.4455 179.564 84.0734 179.445L81.5525 178.635L83.7387 171.841L84.5758 172.11L83.7564 174.656L85.5653 175.237L87.7414 173.126ZM83.5121 175.416L82.6339 178.145L84.3273 178.689C84.8726 178.864 85.3127 178.881 85.6479 178.741C85.983 178.602 86.2238 178.304 86.3702 177.849C86.4629 177.561 86.4891 177.315 86.4485 177.111C86.4015 176.905 86.3079 176.723 86.1677 176.565C86.0211 176.405 85.8449 176.27 85.6392 176.162C85.4271 176.052 85.1959 175.956 84.9457 175.876L83.5121 175.416Z" fill="white"/>
<path d="M73.171 173.185L69.7951 171.377L68.267 174.224L67.4921 173.809L70.8682 167.519L71.6432 167.934L70.1771 170.665L73.553 172.473L75.019 169.742L75.7939 170.156L72.4178 176.446L71.6429 176.031L73.171 173.185Z" fill="white"/>
<path d="M65.5299 163.443L63.8299 165.626C63.6384 165.477 63.468 165.4 63.3185 165.395C63.1595 165.391 63.0058 165.429 62.8575 165.51C62.6696 165.62 62.4578 165.788 62.222 166.014C61.9768 166.241 61.7381 166.482 61.5059 166.737C61.055 167.239 60.6148 167.749 60.1853 168.268C59.7557 168.787 59.3314 169.31 58.9125 169.837L55.3064 167.036L59.2026 162.032L58.5245 161.505L60.2244 159.322L60.9185 159.861L59.7087 161.415L63.626 164.458L64.8358 162.904L65.5299 163.443ZM59.8967 162.571L56.4906 166.946L58.7245 168.681L60.5024 166.545C60.607 166.422 60.7329 166.277 60.88 166.11C61.0218 165.939 61.1825 165.765 61.3622 165.589C61.5324 165.414 61.7173 165.243 61.917 165.074C62.1167 164.905 62.3262 164.757 62.5454 164.628L59.8967 162.571Z" fill="white"/>
<path d="M53.4478 157.407L48.207 162.258L44.9439 158.741L45.5295 158.199L48.1949 161.072L49.9592 159.439L47.5617 156.855L48.1547 156.306L50.5522 158.89L52.2646 157.305L49.5991 154.432L50.1847 153.89L53.4478 157.407Z" fill="white"/>
<path d="M44.2845 148.319L44.7694 149.051L38.8092 152.988L38.3243 152.255L41.0725 150.44L40.4873 149.556L36.4569 149.434L35.8995 148.592L40.2744 148.777L41.8485 144.639L42.4227 145.506L41.1142 149.057L41.7385 150L44.2845 148.319Z" fill="white"/>
<path d="M30.398 139.318C30.5682 139.706 30.7851 140.008 31.0486 140.224C31.3094 140.433 31.5993 140.574 31.9184 140.648C32.2348 140.715 32.5679 140.72 32.9178 140.663C33.2616 140.608 33.6032 140.506 33.9427 140.358C34.3068 140.199 34.6305 140.006 34.9137 139.779C35.1968 139.553 35.4196 139.298 35.582 139.014C35.7382 138.732 35.8265 138.422 35.847 138.082C35.8612 137.746 35.7846 137.386 35.6171 137.004C35.4145 136.541 35.1487 136.195 34.8196 135.964C34.4905 135.733 34.1452 135.642 33.7837 135.69L33.3988 134.811C34.0041 134.715 34.5703 134.824 35.0973 135.137C35.6181 135.453 36.0379 135.975 36.3567 136.703C36.5782 137.208 36.688 137.685 36.6861 138.134C36.6842 138.583 36.5905 138.999 36.4049 139.381C36.2167 139.757 35.9459 140.096 35.5925 140.397C35.2392 140.699 34.8187 140.956 34.331 141.169C33.8496 141.379 33.3781 141.512 32.9167 141.567C32.4553 141.622 32.0211 141.587 31.6141 141.464C31.2009 141.343 30.8286 141.132 30.4971 140.828C30.1595 140.528 29.8786 140.122 29.6544 139.61C29.4978 139.252 29.4005 138.913 29.3627 138.592C29.3222 138.264 29.3362 137.96 29.4049 137.681C29.4646 137.397 29.5759 137.139 29.7387 136.907C29.8953 136.677 30.0928 136.473 30.3312 136.295L30.6878 137.109C30.4073 137.342 30.239 137.654 30.1827 138.046C30.1237 138.432 30.1955 138.856 30.398 139.318Z" fill="white"/>
<path d="M30.2885 122.558L30.5192 123.478L29.1664 124.399L30.0253 127.827L31.653 128.003L31.8836 128.923L24.3068 128.081L24 126.857L30.2885 122.558ZM28.463 124.877L24.8997 127.287L29.1796 127.736L28.463 124.877Z" fill="white"/>
<path d="M32.3701 70.0395L26.2782 66.3098L27.5722 64.2013C27.9842 63.53 28.4729 63.107 29.0385 62.9323C29.5983 62.754 30.2229 62.876 30.9122 63.298C31.2626 63.5125 31.5312 63.7638 31.718 64.0518C31.9083 64.3341 32.0227 64.637 32.0613 64.9605C32.0979 65.2355 32.0748 65.5371 31.992 65.8653C31.9092 66.1934 31.7656 66.5239 31.5614 66.8567L30.822 68.0616L32.8296 69.2907L32.3701 70.0395ZM30.1413 67.6448L30.8596 66.4744C30.9934 66.2563 31.0978 66.0282 31.1729 65.79C31.2422 65.5483 31.257 65.3245 31.2174 65.1187C31.1835 64.9164 31.1061 64.727 30.9853 64.5504C30.8645 64.3738 30.6719 64.2046 30.4077 64.0428C29.5345 63.5083 28.8092 63.7115 28.2318 64.6524L27.4184 65.9778L30.1413 67.6448Z" fill="white"/>
<path d="M38.1199 59.3135L32.7207 54.6389L35.8651 51.0157L36.4684 51.5381L33.8999 54.4976L35.7175 56.0713L38.0278 53.4092L38.6387 53.9381L36.3284 56.6002L38.0925 58.1275L40.661 55.168L41.2643 55.6903L38.1199 59.3135Z" fill="white"/>
<path d="M42.3381 41.1674C42.5745 40.9778 42.7215 40.7736 42.779 40.5549C42.8322 40.331 42.7839 40.1151 42.6341 39.9073L43.2882 39.3827C43.5814 39.7689 43.6863 40.1681 43.6029 40.5802C43.5205 40.9829 43.2508 41.3675 42.7937 41.7341C42.3367 42.1007 41.8998 42.2828 41.4831 42.2804C41.0675 42.2686 40.7025 42.0779 40.3883 41.7086L41.0423 41.184C41.2131 41.3749 41.4138 41.4686 41.6442 41.4651C41.8704 41.4562 42.1017 41.357 42.3381 41.1674ZM45.4487 49.5345L40.9748 43.9698L41.6604 43.4199L45.2736 47.9142L44.647 41.0245L45.372 40.443L49.8459 46.0077L49.1603 46.5576L45.5787 42.1027L46.1658 48.9594L45.4487 49.5345Z" fill="white"/>
<path d="M57.4466 39.5857L56.6843 40.0235L53.5203 34.528L51.5316 35.6704L51.1335 34.9791L55.8733 32.2566L56.2714 32.9479L54.2826 34.0902L57.4466 39.5857Z" fill="white"/>
<path d="M64.6587 34.4175L62.2282 27.7062L63.055 27.4075L65.018 32.8278L66.657 26.1061L67.5314 25.7903L69.9618 32.5015L69.135 32.8002L67.1892 27.4274L65.5235 34.105L64.6587 34.4175Z" fill="white"/>
<path d="M77.1635 25.0446L80.9395 24.4024L80.3967 21.218L81.2634 21.0705L82.4629 28.1061L81.5961 28.2535L81.0753 25.1985L77.2992 25.8407L77.8201 28.8957L76.9533 29.0432L75.7538 22.0076L76.6206 21.8602L77.1635 25.0446Z" fill="white"/>
<path d="M89.8583 26.2005L89.7581 19.0644L94.3561 19L94.3673 19.7974L90.6485 19.8495L90.7375 26.1882L89.8583 26.2005Z" fill="white"/>
<path d="M109.626 25.8525L108.679 25.5997L110.887 23.2529C110.686 23.1435 110.505 23.0117 110.344 22.8572C110.189 22.7046 110.066 22.5287 109.972 22.3297C109.879 22.1307 109.823 21.9102 109.804 21.6683C109.787 21.4199 109.817 21.1527 109.893 20.8666C109.997 20.4765 110.145 20.1606 110.335 19.9188C110.525 19.677 110.751 19.497 111.013 19.3788C111.281 19.2623 111.579 19.2059 111.906 19.2095C112.241 19.2084 112.597 19.2582 112.975 19.359L115.533 20.0418L113.688 26.9367L112.838 26.71L113.53 24.1256L111.694 23.6356L109.626 25.8525ZM113.736 23.3552L114.477 20.5855L112.759 20.1268C112.205 19.9792 111.765 19.9835 111.437 20.1398C111.109 20.2961 110.884 20.6051 110.76 21.0667C110.682 21.3593 110.668 21.6063 110.719 21.8079C110.776 22.0113 110.878 22.1884 111.026 22.3394C111.181 22.492 111.363 22.6174 111.574 22.7155C111.792 22.8153 112.027 22.8991 112.281 22.9669L113.736 23.3552Z" fill="white"/>
<path d="M124.177 25.0041L127.639 26.6405L129.022 23.7206L129.817 24.0962L126.761 30.5473L125.966 30.1717L127.293 27.3704L123.831 25.7341L122.504 28.5353L121.709 28.1597L124.765 21.7086L125.56 22.0842L124.177 25.0041Z" fill="white"/>
<path d="M132.395 34.338L133.985 32.073C134.183 32.2121 134.358 32.2805 134.507 32.2784C134.666 32.2746 134.818 32.2287 134.962 32.1406C135.144 32.0216 135.347 31.8433 135.571 31.6059C135.805 31.3667 136.032 31.1143 136.251 30.8487C136.676 30.3247 137.09 29.7929 137.494 29.2534C137.897 28.7139 138.295 28.1705 138.687 27.6233L142.428 30.242L138.785 35.4333L139.489 35.9257L137.899 38.1907L137.179 37.6867L138.31 36.0747L134.247 33.2301L133.116 34.8421L132.395 34.338ZM138.065 34.9292L141.249 30.391L138.932 28.7688L137.262 30.9899C137.164 31.1183 137.046 31.2696 136.907 31.4437C136.774 31.6217 136.622 31.803 136.451 31.9876C136.29 32.1705 136.114 32.3513 135.923 32.5298C135.732 32.7083 135.53 32.867 135.317 33.0058L138.065 34.9292Z" fill="white"/>
<path d="M144.849 39.7574L149.847 34.6568L153.278 38.0105L152.719 38.5804L149.917 35.841L148.234 37.558L150.755 40.0221L150.189 40.5993L147.669 38.1352L146.036 39.8017L148.838 42.5412L148.28 43.1111L144.849 39.7574Z" fill="white"/>
<path d="M154.604 48.4932L154.084 47.7847L159.849 43.5678L160.368 44.2763L157.71 46.2207L158.337 47.0758L162.369 47.0045L162.966 47.8189L158.587 47.8439L157.213 52.0521L156.598 51.2133L157.735 47.604L157.066 46.6919L154.604 48.4932Z" fill="white"/>
<path d="M168.831 56.6433C168.641 56.2641 168.409 55.9736 168.135 55.7719C167.864 55.5762 167.567 55.4498 167.244 55.3926C166.925 55.3413 166.592 55.3533 166.245 55.4285C165.905 55.5007 165.569 55.6195 165.238 55.7849C164.882 55.9624 164.569 56.1715 164.297 56.4123C164.026 56.653 163.817 56.9193 163.669 57.2112C163.527 57.5001 163.455 57.8146 163.452 58.1547C163.455 58.4918 163.55 58.8469 163.736 59.2201C163.962 59.6716 164.245 60.0042 164.586 60.218C164.926 60.4317 165.276 60.5055 165.634 60.4394L166.064 61.2972C165.464 61.4235 164.893 61.3436 164.351 61.0576C163.814 60.7686 163.369 60.2689 163.013 59.5586C162.766 59.065 162.632 58.5939 162.611 58.1455C162.59 57.6971 162.662 57.2772 162.828 56.886C162.997 56.5008 163.25 56.1487 163.588 55.8298C163.925 55.5108 164.332 55.2325 164.808 54.9948C165.278 54.7602 165.742 54.6038 166.2 54.5256C166.658 54.4474 167.094 54.4595 167.507 54.562C167.925 54.6613 168.308 54.854 168.655 55.14C169.007 55.423 169.308 55.8143 169.558 56.3139C169.733 56.6631 169.847 56.9971 169.902 57.3162C169.959 57.6412 169.96 57.9452 169.906 58.2281C169.861 58.514 169.763 58.7773 169.612 59.0181C169.467 59.2558 169.281 59.4694 169.052 59.659L168.654 58.8644C168.922 58.6176 169.074 58.2971 169.111 57.9029C169.15 57.5147 169.056 57.0948 168.831 56.6433Z" fill="white"/>
<path d="M169.922 73.6474L169.648 72.7389L170.956 71.7551L169.935 68.3721L168.301 68.2734L168.027 67.3648L175.636 67.8485L176 69.0567L169.922 73.6474ZM171.636 71.2448L175.081 68.6691L170.785 68.4224L171.636 71.2448Z" fill="white"/>
<path d="M88.2477 79.4578V103.314H92.3395V108.503H88.2477V115.421H82.4384V108.503H64V104.281L80.7208 79.4578H88.2477ZM70.7691 103.314H82.4384V85.7144L70.7691 103.314Z" fill="white"/>
<path d="M100.719 115.828C99.7089 115.76 98.867 115.421 98.1934 114.81C97.5536 114.166 97.2336 113.301 97.2336 112.216C97.2336 111.029 97.6041 110.131 98.345 109.52C99.0859 108.876 99.911 108.554 100.82 108.554C100.921 108.554 101.022 108.554 101.123 108.554C102.639 108.655 103.683 109.198 104.255 110.182C104.828 111.165 105.114 112.199 105.114 113.284C105.114 113.454 105.114 113.624 105.114 113.793C105.114 114.776 104.929 115.743 104.558 116.692C104.188 117.676 103.7 118.592 103.093 119.439C102.487 120.287 101.797 121.016 101.022 121.627C100.248 122.271 99.4395 122.729 98.5976 123L97.0821 120.914C97.8903 120.338 98.6312 119.609 99.3048 118.727C99.9783 117.845 100.45 116.879 100.719 115.828Z" fill="white"/>
<path d="M137 105.349C137 107.316 136.613 108.978 135.838 110.334C135.097 111.657 134.104 112.725 132.858 113.539C131.645 114.353 130.265 114.946 128.715 115.319C127.166 115.658 125.583 115.828 123.967 115.828C122.317 115.828 120.7 115.641 119.117 115.268C117.568 114.895 116.171 114.302 114.924 113.488C113.712 112.64 112.735 111.555 111.995 110.232C111.254 108.91 110.883 107.282 110.883 105.349C110.883 103.281 111.338 101.483 112.247 99.9572C113.19 98.4312 114.672 97.2782 116.693 96.4983C115.817 96.0574 115.076 95.5318 114.47 94.9214C113.897 94.311 113.426 93.6667 113.055 92.9884C112.719 92.2763 112.466 91.5472 112.298 90.8012C112.163 90.0551 112.096 89.343 112.096 88.6647C112.096 86.9353 112.416 85.4601 113.055 84.2393C113.729 83.0185 114.621 82.0181 115.733 81.2381C116.844 80.4582 118.107 79.8986 119.521 79.5595C120.97 79.1865 122.468 79 124.017 79C125.533 79 126.998 79.1865 128.412 79.5595C129.86 79.8986 131.123 80.4582 132.201 81.2381C133.312 82.0181 134.188 83.0185 134.828 84.2393C135.501 85.4601 135.838 86.9353 135.838 88.6647C135.838 89.343 135.754 90.0551 135.586 90.8012C135.417 91.5472 135.148 92.2593 134.777 92.9376C134.441 93.6158 133.969 94.2601 133.363 94.8705C132.757 95.4809 132.033 95.9896 131.191 96.3965C133.211 97.1765 134.676 98.3464 135.586 99.9064C136.529 101.466 137 103.281 137 105.349ZM123.967 84.1884C123.159 84.1884 122.384 84.2902 121.643 84.4936C120.902 84.6632 120.246 84.9514 119.673 85.3584C119.134 85.7653 118.696 86.3079 118.36 86.9861C118.056 87.6304 117.905 88.4104 117.905 89.326C117.905 91.1572 118.477 92.5137 119.622 93.3954C120.801 94.2432 122.249 94.6671 123.967 94.6671C124.775 94.6671 125.55 94.5653 126.291 94.3618C127.032 94.1584 127.671 93.8532 128.21 93.4462C128.749 93.0054 129.17 92.4628 129.473 91.8185C129.81 91.1742 129.978 90.4112 129.978 89.5295C129.978 88.58 129.81 87.7661 129.473 87.0879C129.17 86.4096 128.749 85.8501 128.21 85.4092C127.671 84.9684 127.032 84.6632 126.291 84.4936C125.55 84.2902 124.775 84.1884 123.967 84.1884ZM123.916 99.3977C123.007 99.3977 122.115 99.4994 121.239 99.7029C120.397 99.9064 119.639 100.229 118.966 100.669C118.292 101.11 117.753 101.687 117.349 102.399C116.945 103.111 116.743 103.976 116.743 104.993C116.743 106.112 116.979 107.045 117.45 107.791C117.922 108.503 118.511 109.079 119.218 109.52C119.926 109.927 120.7 110.215 121.542 110.385C122.384 110.555 123.192 110.639 123.967 110.639C124.741 110.639 125.55 110.555 126.392 110.385C127.234 110.215 127.991 109.927 128.665 109.52C129.372 109.079 129.945 108.503 130.382 107.791C130.854 107.045 131.09 106.112 131.09 104.993C131.09 103.976 130.888 103.111 130.483 102.399C130.079 101.687 129.54 101.11 128.867 100.669C128.193 100.229 127.419 99.9064 126.543 99.7029C125.701 99.4994 124.826 99.3977 123.916 99.3977Z" fill="white"/>
<defs>
<filter id="filter0_bi_172_1426" x="-4" y="-4" width="208" height="208" filterUnits="userSpaceOnUse" color-interpolation-filters="sRGB">
<feFlood flood-opacity="0" result="BackgroundImageFix"/>
<feGaussianBlur in="BackgroundImageFix" stdDeviation="2"/>
<feComposite in2="SourceAlpha" operator="in" result="effect1_backgroundBlur_172_1426"/>
<feBlend mode="normal" in="SourceGraphic" in2="effect1_backgroundBlur_172_1426" result="shape"/>
<feColorMatrix in="SourceAlpha" type="matrix" values="0 0 0 0 0 0 0 0 0 0 0 0 0 0 0 0 0 0 127 0" result="hardAlpha"/>
<feOffset dy="4"/>
<feGaussianBlur stdDeviation="7.5"/>
<feComposite in2="hardAlpha" operator="arithmetic" k2="-1" k3="1"/>
<feColorMatrix type="matrix" values="0 0 0 0 1 0 0 0 0 1 0 0 0 0 1 0 0 0 0.25 0"/>
<feBlend mode="normal" in2="shape" result="effect2_innerShadow_172_1426"/>
</filter>
</defs>
</svg>
