<svg width="50" height="50" viewBox="0 0 50 50" fill="none" xmlns="http://www.w3.org/2000/svg">
<path d="M29.5018 16C29.8992 16 30.2804 15.8313 30.5615 15.5315C30.8425 15.2314 31.0002 14.8244 31.0002 14.3997C30.9483 12.4096 31.4122 10.4425 32.3405 8.71564C33.4761 6.54321 34.0477 4.0871 33.9969 1.60003C33.9969 1.02829 33.7113 0.499982 33.2477 0.214247C32.7841 -0.0714158 32.2129 -0.0714158 31.7493 0.214247C31.2857 0.49991 31.0001 1.02826 31.0001 1.60003C31.0517 3.59051 30.5881 5.55723 29.6598 7.28408C28.5242 9.45651 27.9526 11.913 28.0031 14.3997C28.0031 14.8244 28.1611 15.2314 28.4422 15.5315C28.7229 15.8313 29.1041 16 29.5018 16Z" fill="#589AFF"/>
<path d="M17.5015 16C17.8988 16 18.28 15.8313 18.5611 15.5315C18.8422 15.2314 18.9999 14.8244 18.9999 14.3997C18.9483 12.4096 19.4119 10.4425 20.3402 8.71564C21.4758 6.54321 22.0474 4.0871 21.9969 1.60003C21.9969 1.02829 21.7113 0.499982 21.2474 0.214247C20.7838 -0.0714158 20.2126 -0.0714158 19.749 0.214247C19.2854 0.49991 18.9998 1.02826 18.9998 1.60003C19.0517 3.59051 18.5878 5.55723 17.6595 7.28408C16.5239 9.45651 15.9523 11.913 16.0031 14.3997C16.0027 14.8244 16.1608 15.2314 16.4419 15.5315C16.723 15.8313 17.1041 16 17.5015 16Z" fill="#589AFF"/>
<path d="M23.5016 16C23.899 16 24.2802 15.8313 24.5613 15.5315C24.8424 15.2314 25 14.8244 25 14.3997C24.9481 12.4096 25.4121 10.4425 26.3404 8.71564C27.4761 6.54321 28.0477 4.0871 27.9969 1.60003C27.9969 1.02829 27.7113 0.499982 27.2477 0.214247C26.7841 -0.0714158 26.2128 -0.0714158 25.7492 0.214247C25.2856 0.49991 25 1.02826 25 1.60003C25.0519 3.59051 24.5879 5.55723 23.6596 7.28408C22.5239 9.45651 21.9523 11.913 22.0031 14.3997C22.0027 14.8244 22.1608 15.2314 22.4419 15.5315C22.7226 15.8313 23.1042 16 23.5016 16Z" fill="#589AFF"/>
<path d="M48.4367 19H1.56276C1.14842 19.0012 0.751744 19.165 0.459066 19.4554C0.166358 19.7458 0.00156695 20.1393 0 20.5499V48.45C0 49.0038 0.297801 49.5156 0.781586 49.7924C1.26498 50.0692 1.86057 50.0692 2.34402 49.7924C2.82741 49.5157 3.12521 49.0039 3.12521 48.45V34.4999H6.24997V48.45C6.24997 49.0038 6.54777 49.5156 7.03117 49.7924C7.51495 50.0692 8.11055 50.0692 8.594 49.7924C9.07739 49.5157 9.37519 49.0039 9.37519 48.45V34.4999H40.6248V48.45C40.6248 49.0038 40.9226 49.5156 41.406 49.7924C41.8894 50.0692 42.485 50.0692 42.9688 49.7924C43.4522 49.5157 43.75 49.0039 43.75 48.45V34.4999H46.8748V48.45C46.8748 49.0038 47.1726 49.5156 47.656 49.7924C48.1394 50.0692 48.735 50.0692 49.2184 49.7924C49.7022 49.5157 50 49.0039 50 48.45V20.5499C49.9984 20.1392 49.8336 19.7457 49.5409 19.4554C49.2482 19.165 48.8515 19.0012 48.4372 19H48.4367ZM15.6251 25.2001C15.2108 25.2001 14.8133 25.0366 14.5202 24.7462C14.2271 24.4555 14.0623 24.0612 14.0623 23.6502C14.0623 23.2391 14.2271 22.8449 14.5202 22.5541C14.8133 22.2633 15.2108 22.1003 15.6251 22.1003C16.0395 22.1003 16.4369 22.2633 16.73 22.5541C17.0227 22.8449 17.1875 23.2391 17.1875 23.6502C17.1875 24.0612 17.0227 24.4555 16.73 24.7462C16.4369 25.0366 16.0395 25.2001 15.6251 25.2001ZM21.8752 25.2001C21.4604 25.2001 21.0634 25.0366 20.7703 24.7462C20.4772 24.4555 20.3124 24.0612 20.3124 23.6502C20.3124 23.2391 20.4772 22.8449 20.7703 22.5541C21.0634 22.2633 21.4604 22.1003 21.8752 22.1003C22.2895 22.1003 22.687 22.2633 22.9797 22.5541C23.2728 22.8449 23.4375 23.2391 23.4375 23.6502C23.4375 24.0612 23.2728 24.4555 22.9797 24.7462C22.687 25.0366 22.2895 25.2001 21.8752 25.2001ZM28.1248 25.2001C27.7105 25.2001 27.313 25.0366 27.0203 24.7462C26.7272 24.4555 26.5624 24.0612 26.5624 23.6502C26.5624 23.2391 26.7272 22.8449 27.0203 22.5541C27.313 22.2633 27.7105 22.1003 28.1248 22.1003C28.5395 22.1003 28.9366 22.2633 29.2297 22.5541C29.5228 22.8449 29.6876 23.2391 29.6876 23.6502C29.6876 24.0612 29.5228 24.4555 29.2297 24.7462C28.9366 25.0366 28.5395 25.2001 28.1248 25.2001ZM34.3748 25.2001C33.9605 25.2001 33.563 25.0366 33.2699 24.7462C32.9772 24.4555 32.8124 24.0612 32.8124 23.6502C32.8124 23.2391 32.9772 22.8449 33.2699 22.5541C33.563 22.2633 33.9605 22.1003 34.3748 22.1003C34.7891 22.1003 35.1866 22.2633 35.4797 22.5541C35.7728 22.8449 35.9376 23.2391 35.9376 23.6502C35.9376 24.0612 35.7728 24.4555 35.4797 24.7462C35.1866 25.0366 34.7891 25.2001 34.3748 25.2001Z" fill="#589AFF"/>
</svg>
