<svg width="43" height="35" viewBox="0 0 43 35" fill="none" xmlns="http://www.w3.org/2000/svg">
<path fill-rule="evenodd" clip-rule="evenodd" d="M29.656 0.480841C32.832 1.06872 34.8776 2.35095 35.6851 4.43494C36.6542 7.16005 37.6768 9.93878 38.6459 12.7174C39.5072 12.7709 40.3147 12.7709 41.1221 12.8243C42.3064 13.8397 43.4907 15.4427 42.7909 17.0992H40.2069C41.499 18.8091 40.8528 30.1903 40.8528 33.6641C40.8528 34.4121 40.2606 35 39.507 35H33.1545C32.4548 35 31.8624 34.4121 31.8624 33.6641V29.9236H11.137V33.6641C11.137 34.4121 10.5448 35 9.79117 35H3.49284C2.73921 35 2.14697 34.4121 2.14697 33.6641C2.14697 30.1907 1.50108 18.8092 2.73923 17.0992H0.209059C-0.490665 15.4427 0.69359 13.8397 1.87787 12.8243C2.68533 12.7709 3.49278 12.7709 4.35414 12.7174C5.32323 9.93885 6.3459 7.16005 7.31492 4.43494C8.12238 2.35095 10.168 1.06852 13.344 0.480841C18.7272 -0.16028 24.218 -0.16028 29.655 0.480841H29.656ZM35.4699 12.557C34.6624 9.9386 33.8011 7.32049 32.9397 4.70206C32.2938 3.74013 31.3248 3.04558 29.7637 2.8852C24.3805 2.13714 18.6202 2.13714 13.1833 2.8852C11.676 3.0456 10.707 3.7402 10.0611 4.70206C9.19975 7.32049 8.33846 9.9386 7.53094 12.557C16.4133 14.5875 26.5878 14.5875 35.4702 12.557H35.4699ZM4.46236 21.8545V19.1294C5.05462 18.4882 5.91571 18.2209 7.20774 18.4882C9.09177 19.3967 10.976 20.2517 12.9139 21.1067C13.2907 21.9616 13.2368 22.6562 12.3755 22.9235C8.44564 23.2975 5.26933 23.2441 4.46212 21.8549L4.46236 21.8545ZM38.5381 21.8545V19.1294C37.9459 18.4882 37.0848 18.2209 35.7928 18.4882C33.9087 19.3967 31.9706 20.2517 30.0866 21.1067C29.7098 21.9616 29.7637 22.6562 30.5711 22.9235C34.5546 23.2975 37.7308 23.2441 38.5387 21.8549L38.5381 21.8545Z" fill="#589AFF"/>
</svg>
