<svg width="55" height="35" viewBox="0 0 55 35" fill="none" xmlns="http://www.w3.org/2000/svg">
<path fill-rule="evenodd" clip-rule="evenodd" d="M54.9521 28.5026C55.0469 28.2069 54.9997 27.8787 54.8216 27.6278C54.6439 27.3728 54.3555 27.2227 54.0512 27.2227H0.948692C0.644424 27.2227 0.356029 27.3728 0.178321 27.6278C0.000612455 27.8792 -0.0470146 28.2069 0.0478 28.5026L1.94443 34.3358C2.07495 34.7328 2.43832 35 2.84533 35H52.1548C52.5618 35 52.9252 34.7328 53.0557 34.3358L54.9524 28.5026H54.9521ZM2.53368 25.2782H52.4674C49.8794 13.5951 39.6772 4.86119 27.5011 4.86119C15.3239 4.86119 5.12221 13.5952 2.53481 25.2782H2.53368ZM22.6605 3.35422C24.2291 3.06667 25.8491 2.91657 27.5006 2.91657C29.152 2.91657 30.7721 3.06668 32.3406 3.35422C31.5703 1.38926 29.6935 0 27.5006 0C25.3076 0 23.4308 1.38937 22.6605 3.35422Z" fill="#589AFF"/>
</svg>
