<svg width="45" height="45" viewBox="0 0 45 45" fill="none" xmlns="http://www.w3.org/2000/svg">
<path d="M19.298 22.2092C19.298 23.1273 18.9634 24.008 18.3678 24.6571C17.7722 25.3066 16.9641 25.6713 16.1217 25.6713C15.2792 25.6713 14.4711 25.3066 13.8752 24.6571C13.2796 24.008 12.945 23.1273 12.945 22.2092C12.945 21.2912 13.2796 20.4104 13.8755 19.7614C14.4711 19.1123 15.2792 18.7472 16.1217 18.7476C16.9638 18.7486 17.7712 19.1137 18.3665 19.7624C18.9621 20.4115 19.297 21.2914 19.2979 22.2092L19.298 22.2092ZM43.1746 38.2127C39.088 38.2127 38.2532 35.5866 36.9975 31.6072C35.9062 28.181 34.3322 22.3482 26.1318 21.2049V22.8029C31.6423 23.5928 33.8367 26.468 35.6192 32.1291C36.875 36.0686 38.0508 39.7946 43.1756 39.7946C43.6703 39.7946 43.6831 40.6094 43.1756 40.6094C37.5211 40.6094 36.1348 36.2426 34.9076 32.3585C33.7672 28.7649 32.4111 24.3939 26.1319 23.633C26.1319 45.6959 26.2116 44.4279 26.0085 45H27.1843V44.9996C27.5848 44.9986 27.9091 44.6451 27.9104 44.2087V38.157C27.9104 35.2139 32.0114 35.2065 32.0114 38.157V44.2087C32.0124 44.6451 32.3367 44.9986 32.7372 44.9996H43.1751C43.5756 44.9986 43.8999 44.6451 43.9008 44.2087V42.0252C45.696 41.1901 45.1781 38.2122 43.1751 38.2122L43.1746 38.2127ZM6.10446 32.5646H5.00842C4.81589 32.5639 4.63075 32.6473 4.49446 32.7958C4.35818 32.944 4.282 33.1457 4.28265 33.3559V36.18H2.8671C2.46692 36.181 2.14261 36.5345 2.14132 36.9709V39.795H0.725777C0.325601 39.7964 0.00128364 40.1498 0 40.586V44.209C0.0012857 44.6455 0.325601 44.9989 0.725777 45H6.23499C6.02124 44.3982 6.1045 44.6858 6.1045 32.5647L6.10446 32.5646ZM24.6852 44.2063C24.6852 44.6431 24.3602 44.9972 23.9594 44.9972H19.6327C19.2319 44.9972 18.9069 44.6431 18.9069 44.2063V38.7942C18.9069 34.7819 13.336 34.783 13.336 38.7942V44.2063C13.336 44.6431 13.0111 44.9972 12.6102 44.9972H8.28353C7.88239 44.9972 7.55743 44.6431 7.55743 44.2063C7.55743 25.0319 7.56001 35.6146 7.56001 10.1753H4.32226C4.00984 10.1743 3.73342 9.95571 3.63505 9.63274C3.5367 9.30976 3.63859 8.95422 3.88833 8.74999L13.4951 0.942309C14.2556 0.329997 15.1765 0 16.1218 0C17.0674 0 17.988 0.329979 18.7485 0.942309L28.3552 8.74999C28.605 8.95421 28.7069 9.30976 28.6088 9.63274C28.5105 9.95571 28.2337 10.1743 27.9213 10.1753H24.6859L24.6852 44.2063ZM23.2333 10.1753H21.4783V14.1305H23.2333V10.1753ZM12.2186 10.1753V14.1305H20.0264V10.1753H12.2186ZM9.01142 10.1753V14.1305H10.767V10.1753H9.01142ZM20.7493 22.2098C20.7493 20.872 20.2614 19.5888 19.3935 18.6431C18.5254 17.6973 17.3484 17.1659 16.1208 17.1659C14.8933 17.1659 13.7162 17.6973 12.8481 18.6435C11.9803 19.5893 11.4926 20.8724 11.4926 22.2101C11.4926 23.5479 11.9806 24.8307 12.8484 25.7765C13.7166 26.7227 14.8936 27.2541 16.1212 27.2541C17.3484 27.2524 18.5248 26.7206 19.3923 25.7748C20.2598 24.829 20.7481 23.5469 20.7493 22.2099V22.2098Z" fill="#589AFF"/>
</svg>
