<svg width="40" height="40" viewBox="0 0 40 40" fill="none" xmlns="http://www.w3.org/2000/svg">
<path d="M20 0C14.6955 0 9.60871 2.10712 5.85792 5.85792C2.10712 9.60871 0 14.6958 0 20C0 25.3042 2.10712 30.3913 5.85792 34.1421C9.60871 37.8929 14.6958 40 20 40C25.3045 40 30.3913 37.8929 34.1421 34.1421C37.8929 30.3913 40 25.3042 40 20C40 14.6958 37.8929 9.60871 34.1421 5.85792C30.3913 2.10712 25.3042 0 20 0ZM30.6071 20.8279L24.6968 21.1866L19.7036 14.2899L21.4898 9.46227L29.8208 8.8211L33.3172 14.0763L30.6071 20.8279ZM12.4137 29.1935L9.22053 24.0899L12.1793 16.3035L18.138 15.6896L23.0692 22.4897L20.6901 28.4623L12.4137 29.1935ZM29.6553 4.91042L29.1311 6.8001L20.7447 7.43473L16.6067 4.75193L17.0551 2.32421C21.4382 1.58644 25.9388 2.51125 29.676 4.91735L29.6553 4.91042ZM14.8344 2.84142L14.448 4.91042L9.55148 8.75865C8.86182 8.75865 7.73766 8.8414 5.86877 8.97264C8.1556 6.04658 11.2922 3.89985 14.8483 2.82762L14.8344 2.84142ZM4.42046 11.1382C5.9861 11.0277 7.64829 10.9177 8.77895 10.8622L10.4272 15.1107L7.4342 22.9865L2.45452 23.7246C1.54164 19.433 2.239 14.9556 4.41346 11.1451L4.42046 11.1382ZM14.2274 36.9731H14.3652L11.6065 33.7179L12.6549 31.2694L21.4758 30.4832L25.4206 33.4901L23.6137 37.5592C20.4798 38.2077 17.2293 38.0053 14.1997 36.9731L14.2274 36.9731ZM26.2069 36.8214L27.7106 33.3111L32.2142 29.8077L34.7246 30.2076H34.7242C32.6286 33.2287 29.6591 35.5367 26.2138 36.8214L26.2069 36.8214ZM35.8899 28.2765L33.1312 27.842L32.1175 22.5386L34.952 15.4488L37.4555 16.028H37.4551C38.4073 20.1672 37.8523 24.5099 35.8899 28.2765Z" fill="#589AFF"/>
</svg>
