<svg width="45" height="45" viewBox="0 0 45 45" fill="none" xmlns="http://www.w3.org/2000/svg">
<path d="M8.94668 19.188C9.50878 22.6693 10.446 25.5859 10.3523 28.1263C10.3523 28.879 10.165 29.5376 9.88363 30.1963C9.60258 30.949 9.04049 31.7018 8.38426 32.2662L0.513596 39.6049C-0.798209 41.0163 0.794647 42.7099 0.981905 43.2743C1.45054 44.1209 2.10639 44.2151 3.13718 44.7799C3.88686 45.1563 4.82379 45.0621 5.47969 44.4035L12.7882 36.5004C13.3503 35.8418 14.1 35.3712 14.8497 34.9948C15.5056 34.7126 16.1615 34.5242 16.9112 34.5242C19.3475 34.5242 22.3459 35.465 25.8127 35.9356H26L8.94654 19V19.188L8.94668 19.188Z" fill="#589AFF"/>
<path d="M30.0731 29.6827C30.0731 25.251 33.632 21.5739 38.1276 21.5739C39.5325 21.5739 40.9375 21.9511 42.1549 22.611C42.6233 22.8939 42.9976 23.1767 43.4661 23.5538C43.6532 23.1767 43.8407 22.7054 44.0279 22.3282C45.4328 18.8394 45.1519 15.3509 44.2151 12.5222C42.2483 7.05338 38.0339 2.81049 32.6016 0.924723C29.6983 -0.11245 26.2329 -0.489687 22.6739 0.924723C14.8069 4.22473 9.37463 12.2393 9 17.5195L27.3568 36C28.668 35.9056 30.2601 35.4344 31.8525 34.7743C31.5716 34.4915 31.3841 34.1143 31.1032 33.7372C30.4476 32.5112 30.0729 31.0972 30.0729 29.6828L30.0731 29.6827Z" fill="#589AFF"/>
<path d="M41.4769 23.9271C40.4571 23.3709 39.2519 23 38.0464 23C34.1525 23 31 26.1521 31 29.9536C31 31.2516 31.3709 32.4567 32.0199 33.5695C33.2251 35.6093 35.4504 37 38.0464 37C41.9403 37 45 33.8479 45 29.9536C45.0003 27.3577 43.6095 25.1326 41.4769 23.9271Z" fill="#589AFF"/>
</svg>
