<svg width="40" height="40" viewBox="0 0 40 40" fill="none" xmlns="http://www.w3.org/2000/svg">
<path d="M31 19H40L39.9997 10H31.0005L31 19ZM35.0343 11.9862C36.5238 11.9862 37.7031 13.1654 37.7031 14.6553C37.7031 16.1449 36.524 17.3244 35.0343 17.3244C33.5447 17.3244 32.3654 16.1452 32.3654 14.6553C32.3654 13.1654 33.5448 11.9862 35.0343 11.9862Z" fill="#589AFF"/>
<path d="M21 10H30V19H21V10Z" fill="#589AFF"/>
<path d="M10 19H19L18.9997 10H10.0005L10 19ZM14.4685 11.862C15.958 11.862 17.1374 13.0412 17.1374 14.5311C17.1374 16.0208 15.9583 17.2002 14.4685 17.2002C12.979 17.1999 11.8619 15.9586 11.8619 14.4687C11.8619 12.9791 13.0411 11.862 14.4685 11.862Z" fill="#589AFF"/>
<path d="M0 10H9V19H0V10Z" fill="#589AFF"/>
<path d="M0 30H9V21H0V30ZM4.46888 22.862C5.95854 22.862 7.13799 24.0412 7.13799 25.5311C7.13799 27.0208 5.95876 28.2002 4.46888 28.2002C2.97923 28.2002 1.79978 27.021 1.79978 25.5311C1.86215 24.0412 3.04139 22.862 4.46888 22.862Z" fill="#589AFF"/>
<path d="M10 30H19L18.9997 21H10.0005L10 30ZM14.4685 22.862C15.958 22.862 17.1374 24.0412 17.1374 25.5311C17.1374 27.0208 15.9583 28.2002 14.4685 28.2002C12.979 28.1999 11.8619 26.9586 11.8619 25.5311C11.8619 24.0412 13.0411 22.862 14.4685 22.862Z" fill="#589AFF"/>
<path d="M21 21H30V30H21V21Z" fill="#589AFF"/>
<path d="M31 30H40L39.9997 21H31.0005L31 30ZM35.5309 22.862C37.0204 22.862 38.1998 24.0412 38.1998 25.5311C38.1998 27.0208 37.0206 28.2002 35.5309 28.2002C34.0414 28.2002 32.862 27.021 32.862 25.5311C32.862 24.0412 34.0411 22.862 35.5309 22.862Z" fill="#589AFF"/>
<path d="M38.0753 7.42221e-05H31V9H40L39.9997 1.92415C39.9997 0.868802 39.131 0 38.0757 0L38.0753 7.42221e-05Z" fill="#589AFF"/>
<path d="M21 9H30V0H21V9ZM25.5313 1.86201C27.0209 1.86201 28.2004 3.04124 28.2004 4.53112C28.2001 6.02077 26.9588 7.13792 25.5313 7.13792C24.1038 7.13792 22.8622 5.95868 22.8622 4.46881C22.8622 2.97916 24.0414 1.86201 25.5313 1.86201Z" fill="#589AFF"/>
<path d="M10 9H19L18.9997 0H10.0005L10 9ZM14.4685 1.86201C15.958 1.86201 17.1374 3.04124 17.1374 4.53112C17.1374 6.02077 15.9583 7.13792 14.4685 7.13792C12.979 7.13792 11.8619 5.95868 11.8619 4.46881C11.8619 2.97916 13.0411 1.86201 14.4685 1.86201Z" fill="#589AFF"/>
<path d="M7.42221e-05 1.92409V9H9V0H1.92415C0.868802 0 0 0.868809 0 1.92417L7.42221e-05 1.92409Z" fill="#589AFF"/>
<path d="M0 38.0758C0 39.1309 0.869099 40 1.92415 40H9V31H7.42222e-05L0 38.0758Z" fill="#589AFF"/>
<path d="M10 31H19V40H10V31Z" fill="#589AFF"/>
<path d="M21 40H30V31H21V40ZM25.5313 32.862C27.0209 32.862 28.2004 34.0412 28.2004 35.5311C28.2004 37.0208 27.0211 38.2002 25.5313 38.2002C24.0416 38.2002 22.8622 37.021 22.8622 35.5311C22.8622 34.0412 24.0414 32.862 25.5313 32.862Z" fill="#589AFF"/>
<path d="M31 40H38.0759C39.1309 40 40 39.1309 40 38.0758L39.9997 31H31.0001L31 40Z" fill="#589AFF"/>
</svg>
