<svg width="47" height="35" viewBox="0 0 47 35" fill="none" xmlns="http://www.w3.org/2000/svg">
<path fill-rule="evenodd" clip-rule="evenodd" d="M18.9601 25.0327C16.4695 27.3036 16.4603 31.0007 18.9374 33.282C21.4137 35.564 25.4466 35.5744 27.9368 33.3028C30.4273 31.0319 30.4365 27.3349 27.9595 25.0535C25.4832 22.7716 21.4502 22.7611 18.9601 25.0327ZM9.9831 16.7619C9.9831 16.7619 7.79799 18.8848 9.97174 20.8871C12.1455 22.8897 14.472 20.8975 14.472 20.8975C19.4545 16.3534 27.5145 16.3716 32.4729 20.9395C32.4729 20.9395 34.717 23.007 36.9731 20.9499C39.2286 18.8923 36.9845 16.8248 36.9845 16.8248C29.5498 9.97554 17.4571 9.94629 9.98401 16.7619H9.9833H9.9831ZM1.00609 8.49117C1.00609 8.49117 -1.25002 10.5488 0.99473 12.6163C3.23885 14.6844 5.49496 12.6267 5.49496 12.6267C15.4609 3.53809 31.579 3.5756 41.4941 12.7104C41.4941 12.7104 43.7388 14.7779 45.9943 12.7208C48.2504 10.6631 46.0057 8.59567 46.0057 8.59567C33.6123 -2.82304 13.4649 -2.87221 1.00518 8.49084L1.00609 8.49117Z" fill="#589AFF"/>
</svg>
