<svg width="40" height="40" viewBox="0 0 40 40" fill="none" xmlns="http://www.w3.org/2000/svg">
<path d="M9.99997 35C9.99997 37.7613 7.76129 40 4.99998 40C2.23867 40 0 37.7613 0 35C0 32.2387 2.23867 30 4.99998 30C7.76129 30 9.99997 32.2387 9.99997 35Z" fill="#589AFF"/>
<path d="M20 35C20 37.7613 17.7613 40 15 40C12.2387 40 10 37.7613 10 35C10 32.2387 12.2387 30 15 30C17.7613 30 20 32.2387 20 35Z" fill="#589AFF"/>
<path d="M30 35C30 37.7613 27.7613 40 25 40C22.2387 40 20 37.7613 20 35C20 32.2387 22.2387 30 25 30C27.7613 30 30 32.2387 30 35Z" fill="#589AFF"/>
<path d="M40 35C40 37.7613 37.7613 40 35 40C32.2387 40 30 37.7613 30 35C30 32.2387 32.2387 30 35 30C37.7613 30 40 32.2387 40 35Z" fill="#589AFF"/>
<path d="M15 25C15 27.7613 12.7613 30 9.99998 30C7.23867 30 5 27.7613 5 25C5 22.2387 7.23867 20 9.99998 20C12.7613 20 15 22.2387 15 25Z" fill="#589AFF"/>
<path d="M25 25C25 27.7613 22.7613 30 20 30C17.2387 30 15 27.7613 15 25C15 22.2387 17.2387 20 20 20C22.7613 20 25 22.2387 25 25Z" fill="#589AFF"/>
<path d="M35 25C35 27.7613 32.7613 30 30 30C27.2387 30 25 27.7613 25 25C25 22.2387 27.2387 20 30 20C32.7613 20 35 22.2387 35 25Z" fill="#589AFF"/>
<path d="M21 15C21 17.7613 18.7613 20 16 20C13.2387 20 11 17.7613 11 15C11 12.2387 13.2387 10 16 10C18.7613 10 21 12.2387 21 15Z" fill="#589AFF"/>
<path d="M31 15C31 17.7613 28.7613 20 26 20C23.2387 20 21 17.7613 21 15C21 12.2387 23.2387 10 26 10C28.7613 10 31 12.2387 31 15Z" fill="#589AFF"/>
<path d="M25 4.99998C25 7.76129 22.7613 9.99997 20 9.99997C17.2387 9.99997 15 7.76129 15 4.99998C15 2.23867 17.2387 0 20 0C22.7613 0 25 2.23867 25 4.99998Z" fill="#589AFF"/>
</svg>
