<svg width="38" height="40" viewBox="0 0 38 40" fill="none" xmlns="http://www.w3.org/2000/svg">
<path fill-rule="evenodd" clip-rule="evenodd" d="M26.3473 9.92108C31.7557 12.0443 35.2915 16.3023 36.8753 20.114C38.6999 24.5051 38.2819 28.7824 35.7875 31.2727C34.7498 32.3055 32.9455 32.8987 30.8345 32.8987C29.8686 32.8987 28.8929 32.7693 27.9303 32.5384C26.0473 37.1692 22.7009 40 19.0023 40C15.2815 40 11.9518 37.1703 10.0724 32.5277C9.1202 32.7636 8.14765 32.8986 7.16884 32.8986C5.05784 32.8986 3.253 32.306 2.21642 31.2726C-0.282811 28.7829 -0.700114 24.5062 1.1258 20.1151C2.70956 16.3028 6.24532 12.0465 11.6537 9.92218C11.6537 9.91668 11.6533 9.91164 11.6528 9.90652C11.6524 9.90127 11.6519 9.89594 11.6519 9.88998C11.6519 7.60587 12.704 5.56512 14.3523 4.21966C14.1958 3.33733 13.4238 2.66244 12.4934 2.66244C11.7562 2.66244 11.1581 2.06617 11.1581 1.33122C11.1581 0.59626 11.7562 0 12.4934 0C14.433 0 16.0821 1.21734 16.7417 2.92068C17.4534 2.69035 18.2111 2.5628 19.0012 2.5628C19.7986 2.5628 20.5663 2.69406 21.2874 2.9312C21.9443 1.22169 23.5946 6.28849e-05 25.5373 6.28849e-05C26.2752 6.28849e-05 26.8727 0.596326 26.8727 1.33128C26.8727 2.06624 26.2752 2.6625 25.5373 2.6625C24.5996 2.6625 23.8244 3.3473 23.6772 4.24139C25.3082 5.58617 26.3492 7.61841 26.3492 9.88889C26.3492 9.89493 26.3487 9.90049 26.3482 9.90589C26.3478 9.911 26.3473 9.91597 26.3473 9.92108ZM23.5953 9.07465C23.2065 6.89088 21.2985 5.22463 18.9993 5.22463C16.6994 5.22463 14.7928 6.89088 14.4034 9.07465C15.8324 8.7502 17.3591 8.55826 18.9993 8.55826C20.6389 8.55826 22.1661 8.74958 23.5953 9.07465ZM18.9113 25.0584C18.8816 25.057 18.8519 25.0556 18.8223 25.0556C18.377 26.0631 17.8659 26.9219 17.3361 27.6519C18.4713 27.7113 19.5893 27.7144 20.6936 27.6587C20.129 26.8822 19.6297 26.0129 19.203 25.0544C19.173 25.0549 19.1431 25.0563 19.1133 25.0577C19.0752 25.0595 19.0373 25.0612 18.9993 25.0612C18.9702 25.0612 18.9408 25.0598 18.9113 25.0584ZM12.0779 12.6151C12.2075 12.5851 12.3367 12.5588 12.4654 12.5366C13.7632 12.3126 15.0216 11.8745 16.0306 11.5232C16.1478 11.4824 16.2616 11.4428 16.3717 11.4049C14.807 11.6299 13.3754 12.0508 12.0779 12.6151ZM15.0463 35.4671C16.2349 36.6609 17.6007 37.3358 18.9994 37.3358C20.4235 37.3358 21.7961 36.6646 22.9874 35.4609C21.6502 35.6163 20.3161 35.7067 18.9994 35.7067C17.6928 35.7067 16.3704 35.62 15.0463 35.4671ZM12.9719 32.4753C16.9965 33.2171 20.9999 33.2171 25.0376 32.4697C25.1681 32.2004 25.2929 31.9236 25.4109 31.6363C24.5824 31.2351 23.7868 30.7398 23.0396 30.1398C21.7005 30.2902 20.3466 30.3837 18.9989 30.3837C17.6934 30.3837 16.3381 30.2853 14.9699 30.1292C14.2307 30.7168 13.4271 31.2128 12.5837 31.6221C12.7054 31.9149 12.8365 32.1991 12.9719 32.4753Z" fill="#589AFF"/>
</svg>
